<svg width="17" height="10" viewBox="0 0 17 10" fill="none" xmlns="http://www.w3.org/2000/svg">
<path fill-rule="evenodd" clip-rule="evenodd" d="M11.1338 0.596897L4.57008 7.81268L1.68756 4.93016L1.60344 4.85754C1.30983 4.63969 0.893163 4.6639 0.626896 4.93016C0.334003 5.22306 0.334003 5.69793 0.626896 5.99082L4.06544 9.42936L4.15245 9.50414C4.45634 9.72745 4.88867 9.69162 5.15057 9.4037L12.2434 1.60624L12.312 1.51878C12.5157 1.2152 12.4718 0.800147 12.1933 0.546763C11.8869 0.268042 11.4125 0.290487 11.1338 0.596897ZM15.6953 0.596897L8.60242 8.39436L8.53386 8.48182C8.33013 8.7854 8.374 9.20045 8.65256 9.45384C8.95897 9.73256 9.43331 9.71011 9.71203 9.4037L16.8049 1.60624L16.8734 1.51878C17.0772 1.2152 17.0333 0.800147 16.7548 0.546763C16.4483 0.268042 15.974 0.290487 15.6953 0.596897Z" fill="#19CD35"/>
</svg>
