<svg width="24" height="24" viewBox="0 0 24 24" fill="none" xmlns="http://www.w3.org/2000/svg">
<path d="M20.0937 7.34685L8.68035 1.64018C1.01369 -2.19982 -2.13298 0.946846 1.70702 8.61351L2.86702 10.9335C3.20035 11.6135 3.20035 12.4002 2.86702 13.0802L1.70702 15.3868C-2.13298 23.0535 1.00035 26.2002 8.68035 22.3602L20.0937 16.6535C25.2137 14.0935 25.2137 9.90685 20.0937 7.34685ZM15.787 13.0002H8.58702C8.04035 13.0002 7.58702 12.5468 7.58702 12.0002C7.58702 11.4535 8.04035 11.0002 8.58702 11.0002H15.787C16.3337 11.0002 16.787 11.4535 16.787 12.0002C16.787 12.5468 16.3337 13.0002 15.787 13.0002Z" fill="url(#paint0_linear_11153_9595)"/>
<defs>
<linearGradient id="paint0_linear_11153_9595" x1="12.2546" y1="24.7907" x2="4.04108" y2="3.51193" gradientUnits="userSpaceOnUse">
<stop stop-color="#FF8D4E"/>
<stop offset="1" stop-color="#E11A1A"/>
</linearGradient>
</defs>
</svg>
